<svg width="13" height="12" viewBox="0 0 13 12" fill="none" xmlns="http://www.w3.org/2000/svg">
<path d="M6.5 0C8.26605 0 8.4864 0.00599997 9.1793 0.0359999C9.87155 0.066 10.3428 0.1662 10.7575 0.315C11.1865 0.4674 11.5479 0.6738 11.9093 1.0068C12.2398 1.30674 12.4956 1.66955 12.6587 2.07C12.8193 2.4522 12.9285 2.8878 12.961 3.5268C12.9915 4.1664 13 4.3698 13 6C13 7.6302 12.9935 7.8336 12.961 8.4732C12.9285 9.1122 12.8193 9.5472 12.6587 9.93C12.4961 10.3307 12.2402 10.6936 11.9093 10.9932C11.5843 11.2982 11.1912 11.5343 10.7575 11.685C10.3434 11.8332 9.87155 11.934 9.1793 11.964C8.4864 11.9922 8.26605 12 6.5 12C4.73395 12 4.5136 11.994 3.8207 11.964C3.12845 11.934 2.6572 11.8332 2.2425 11.685C1.80851 11.5347 1.41539 11.2985 1.0907 10.9932C0.760116 10.6933 0.504355 10.3305 0.34125 9.93C0.18005 9.5478 0.0715 9.1122 0.0389999 8.4732C0.00844994 7.8336 0 7.6302 0 6C0 4.3698 0.00649996 4.1664 0.0389999 3.5268C0.0715 2.8872 0.18005 2.4528 0.34125 2.07C0.503903 1.66931 0.75972 1.30639 1.0907 1.0068C1.41549 0.701538 1.80858 0.465437 2.2425 0.315C2.6572 0.1662 3.1278 0.066 3.8207 0.0359999C4.5136 0.00779994 4.73395 0 6.5 0ZM6.5 3C5.63805 3 4.8114 3.31607 4.20191 3.87868C3.59241 4.44129 3.25 5.20435 3.25 6C3.25 6.79566 3.59241 7.55874 4.20191 8.1213C4.8114 8.68392 5.63805 9 6.5 9C7.36196 9 8.18863 8.68392 8.79807 8.1213C9.40758 7.55874 9.75 6.79566 9.75 6C9.75 5.20435 9.40758 4.44129 8.79807 3.87868C8.18863 3.31607 7.36196 3 6.5 3ZM10.725 2.85C10.725 2.65109 10.6394 2.46032 10.487 2.31967C10.3347 2.17902 10.128 2.1 9.9125 2.1C9.69702 2.1 9.49032 2.17902 9.33797 2.31967C9.18561 2.46032 9.1 2.65109 9.1 2.85C9.1 3.04891 9.18561 3.23968 9.33797 3.38033C9.49032 3.52098 9.69702 3.6 9.9125 3.6C10.128 3.6 10.3347 3.52098 10.487 3.38033C10.6394 3.23968 10.725 3.04891 10.725 2.85ZM6.5 4.2C7.01714 4.2 7.51315 4.38964 7.87884 4.72721C8.24453 5.06477 8.45 5.52261 8.45 6C8.45 6.47736 8.24453 6.93522 7.87884 7.27278C7.51315 7.61034 7.01714 7.8 6.5 7.8C5.98283 7.8 5.48684 7.61034 5.12114 7.27278C4.75545 6.93522 4.55 6.47736 4.55 6C4.55 5.52261 4.75545 5.06477 5.12114 4.72721C5.48684 4.38964 5.98283 4.2 6.5 4.2Z" fill="#7D7D7D" fill-opacity="0.5"/>
</svg>
