<svg width="12" height="12" viewBox="0 0 12 12" fill="none" xmlns="http://www.w3.org/2000/svg">
<path d="M10.2225 10.2263H8.44764V7.44126C8.44764 6.77718 8.43372 5.92369 7.5195 5.92369C6.594 5.92369 6.453 6.64404 6.453 7.39212V10.2259H4.67588V4.49948H6.38286V5.28059H6.40578C6.64428 4.82947 7.22436 4.35511 8.08986 4.35511C9.89022 4.35511 10.2244 5.54045 10.2244 7.08168V10.2259L10.2225 10.2263ZM2.66812 3.71689C2.53248 3.71693 2.39815 3.69022 2.27285 3.63828C2.14754 3.58634 2.03371 3.51019 1.93788 3.41419C1.84205 3.31819 1.76611 3.20422 1.71439 3.07882C1.66267 2.95343 1.63621 2.81906 1.6365 2.68342C1.63672 2.47925 1.69748 2.27974 1.81109 2.1101C1.92469 1.94047 2.08605 1.80833 2.27476 1.73039C2.46346 1.65245 2.67104 1.6322 2.87125 1.67223C3.07145 1.71225 3.2553 1.81073 3.39953 1.95523C3.54377 2.09972 3.64193 2.28374 3.68159 2.48401C3.72124 2.68429 3.70063 2.89183 3.62234 3.08038C3.54406 3.26894 3.41162 3.43005 3.24177 3.54335C3.07192 3.65664 2.8723 3.71703 2.66812 3.71689ZM3.55837 10.2263H1.7775V4.49986H3.55837V10.2263ZM11.1135 0H0.885C0.396375 0 0 0.386613 0 0.865098V11.1349C0 11.6134 0.396375 12 0.885 12H11.1116C11.5995 12 12 11.6134 12 11.1349V0.865098C12 0.386613 11.5995 0 11.1116 0H11.1135Z" fill="#7D7D7D" fill-opacity="0.5"/>
</svg>
