<svg width="225" height="123" viewBox="0 0 225 123" fill="none" xmlns="http://www.w3.org/2000/svg">
<path d="M121.668 76.723C139.525 76.723 154 62.2474 154 44.3909C154 26.5344 139.525 12.0588 121.668 12.0588C103.811 12.0588 89.3359 26.5344 89.3359 44.3909C89.3359 62.2474 103.811 76.723 121.668 76.723Z" fill="url(#paint0_linear_240_2280)"/>
<path d="M112.745 0C89.6247 0 71 20.091 71 45.0316C71 45.7244 71 46.4172 71 47.3409V122.163C88.1261 122.163 102.041 107.152 102.041 88.6776V88.4466V47.11C102.041 31.4066 113.815 18.7054 128.373 18.7054C141.859 18.7054 152.252 30.2552 153.965 42.7255C152.467 19.4014 134.795 0 112.745 0Z" fill="url(#paint1_linear_240_2280)"/>
<defs>
<linearGradient id="paint0_linear_240_2280" x1="89.3359" y1="1.91573" x2="125.205" y2="86.5212" gradientUnits="userSpaceOnUse">
<stop offset="0.0198252" stop-color="#0549B3"/>
<stop offset="1" stop-color="#69EDDC"/>
</linearGradient>
<linearGradient id="paint1_linear_240_2280" x1="80.614" y1="135.297" x2="132.745" y2="-27.2623" gradientUnits="userSpaceOnUse">
<stop stop-color="#0F58B7"/>
<stop offset="1" stop-color="#69ECDC"/>
</linearGradient>
</defs>
</svg>
