<svg width="104" height="35" viewBox="0 0 104 35" fill="none" xmlns="http://www.w3.org/2000/svg">
<path d="M14.295 22.1482C19.3328 22.1482 23.4168 18.0642 23.4168 13.0264C23.4168 7.98852 19.3328 3.90454 14.295 3.90454C9.25714 3.90454 5.17316 7.98852 5.17316 13.0264C5.17316 18.0642 9.25714 22.1482 14.295 22.1482Z" fill="url(#paint0_linear_247_2263)"/>
<path d="M11.7775 0.50293C5.25457 0.50293 0 6.1712 0 13.2077C0 13.4031 0 13.5986 0 13.8592V34.9686C4.83179 34.9686 8.75761 30.7337 8.75761 25.5215V25.4563V13.794C8.75761 9.36367 12.0795 5.78028 16.1865 5.78028C19.9915 5.78028 22.9237 9.03881 23.4069 12.557C22.9841 5.97664 17.9984 0.50293 11.7775 0.50293Z" fill="url(#paint1_linear_247_2263)"/>
<path d="M86.5646 27.5815V7.75562H89.9203V27.5815H86.5646Z" fill="#1C1C1C"/>
<path d="M95.8727 27.5815V10.3724H91.0701V7.75562H104V10.3724H99.2283V27.5815H95.8727Z" fill="#1C1C1C"/>
<path d="M34.5573 27.5745V7.9071H43.3221C44.8288 7.9071 46.0707 8.19214 47.048 8.76221C48.0252 9.33228 48.748 10.1161 49.2163 11.1137C49.6845 12.091 49.9187 13.2108 49.9187 14.4731C49.9187 16.4276 49.3079 17.9953 48.0863 19.1762C46.8851 20.357 45.2563 20.9475 43.2 20.9475H37.8861V27.5745H34.5573ZM37.8861 18.3211H42.5892C43.9126 18.3211 44.9102 17.975 45.5821 17.2827C46.2539 16.5905 46.5899 15.654 46.5899 14.4731C46.5899 13.2108 46.2641 12.2335 45.6126 11.5413C44.9815 10.8491 44.0246 10.503 42.7419 10.503H37.8861V18.3211Z" fill="#1C1C1C"/>
<path d="M54.5501 27.555C53.3692 27.555 52.4734 27.27 51.8626 26.6999C51.2518 26.1095 50.9464 25.1424 50.9464 23.7987V7.75635H54.2752V23.4933C54.2752 24.0634 54.377 24.4502 54.5806 24.6538C54.7842 24.8574 55.4968 24.9592 55.4968 24.9592L55.7716 27.4634C55.7716 27.4634 55.0183 27.555 54.5501 27.555Z" fill="#1C1C1C"/>
<path d="M61.4265 27.7162C60.5104 27.7162 59.6553 27.5533 58.8612 27.2275C58.0876 26.9018 57.4666 26.4132 56.9983 25.7617C56.53 25.0898 56.2959 24.2652 56.2959 23.288C56.2959 21.9035 56.7642 20.7939 57.7007 19.9591C58.6576 19.104 60.1235 18.6765 62.0984 18.6765H66.7404V18.0352C66.7404 17.3429 66.6284 16.7932 66.4045 16.386C66.2009 15.9788 65.814 15.6836 65.244 15.5004C64.6943 15.3171 63.8799 15.2255 62.8008 15.2255C61.0906 15.2255 59.4924 15.48 58.0061 15.989V13.5153C58.6576 13.2506 59.4517 13.0369 60.3882 12.874C61.3247 12.7111 62.3325 12.6297 63.4116 12.6297C65.529 12.6297 67.1374 13.0572 68.2368 13.9123C69.3566 14.7674 69.9165 16.1621 69.9165 18.0962V27.4108H67.0763L66.8626 25.9449C66.2721 26.515 65.5392 26.9527 64.6637 27.2581C63.8086 27.5635 62.7296 27.7162 61.4265 27.7162ZM62.3122 25.3341C63.3098 25.3341 64.1751 25.1712 64.908 24.8455C65.6613 24.4994 66.2721 24.0413 66.7404 23.4712V20.9364H62.1595C61.1822 20.9364 60.4696 21.1298 60.0217 21.5167C59.5942 21.8831 59.3804 22.4532 59.3804 23.2269C59.3804 23.9802 59.6349 24.5197 60.1439 24.8455C60.6529 25.1712 61.3756 25.3341 62.3122 25.3341Z" fill="#1C1C1C"/>
<path d="M71.3338 27.5745V13.0988H74.3877L74.5404 14.6258C75.1919 14.1168 75.9656 13.6892 76.8614 13.3431C77.7776 12.9767 78.7854 12.7934 79.8848 12.7934C81.7579 12.7934 83.122 13.2312 83.9771 14.1066C84.8322 14.9821 85.2598 16.3462 85.2598 18.1989V27.5745H81.9615V18.3516C81.9615 17.2318 81.7274 16.448 81.2591 16.0001C80.8112 15.5522 79.9561 15.3282 78.6938 15.3282C77.9405 15.3282 77.1973 15.4809 76.4644 15.7863C75.7518 16.0917 75.1512 16.4887 74.6626 16.9773V27.5745H71.3338Z" fill="#1C1C1C"/>
<defs>
<linearGradient id="paint0_linear_247_2263" x1="5.17316" y1="1.04287" x2="15.2929" y2="24.9126" gradientUnits="userSpaceOnUse">
<stop offset="0.0198252" stop-color="#0549B3"/>
<stop offset="1" stop-color="#69EDDC"/>
</linearGradient>
<linearGradient id="paint1_linear_247_2263" x1="2.71239" y1="38.6741" x2="17.4201" y2="-7.18856" gradientUnits="userSpaceOnUse">
<stop stop-color="#0F58B7"/>
<stop offset="1" stop-color="#69ECDC"/>
</linearGradient>
</defs>
</svg>
