<svg width="164" height="52" viewBox="0 0 164 52" fill="none" xmlns="http://www.w3.org/2000/svg">
<path d="M136.57 49.7448V18.5537H141.849V49.7448H136.57Z" fill="white"/>
<path d="M151.214 49.7448V22.6705H143.658V18.5537H164V22.6705H156.493V49.7448H151.214Z" fill="white"/>
<path d="M54.7493 49.7345V18.7928H68.5385C70.9088 18.7928 72.8627 19.2413 74.4001 20.1381C75.9376 21.035 77.0747 22.2682 77.8114 23.8377C78.5481 25.3752 78.9165 27.1368 78.9165 29.1228C78.9165 32.1977 77.9555 34.6641 76.0337 36.5219C74.1439 38.3796 71.5814 39.3085 68.3463 39.3085H59.9863V49.7345H54.7493ZM59.9863 35.1766H67.3854C69.4674 35.1766 71.0369 34.632 72.0939 33.543C73.1509 32.4539 73.6794 30.9805 73.6794 29.1228C73.6794 27.1368 73.1669 25.5994 72.142 24.5103C71.149 23.4213 69.6436 22.8768 67.6256 22.8768H59.9863V35.1766Z" fill="white"/>
<path d="M86.2028 49.7039C84.345 49.7039 82.9356 49.2554 81.9747 48.3586C81.0138 47.4297 80.5333 45.9082 80.5333 43.7942V18.5557H85.7703V43.3137C85.7703 44.2106 85.9305 44.8192 86.2508 45.1395C86.5711 45.4598 87.6922 45.6199 87.6922 45.6199L88.1246 49.5597C88.1246 49.5597 86.9395 49.7039 86.2028 49.7039Z" fill="white"/>
<path d="M97.0212 49.9574C95.5798 49.9574 94.2345 49.7011 92.9853 49.1886C91.7681 48.6761 90.7912 47.9074 90.0545 46.8824C89.3178 45.8254 88.9494 44.5282 88.9494 42.9907C88.9494 40.8126 89.6861 39.0669 91.1595 37.7537C92.665 36.4084 94.9712 35.7357 98.0782 35.7357H105.381V34.7268C105.381 33.6377 105.205 32.7729 104.853 32.1323C104.532 31.4917 103.924 31.0272 103.027 30.7389C102.162 30.4507 100.881 30.3065 99.1832 30.3065C96.4927 30.3065 93.9782 30.7069 91.64 31.5077V27.6159C92.665 27.1995 93.9142 26.8632 95.3876 26.607C96.861 26.3507 98.4465 26.2226 100.144 26.2226C103.475 26.2226 106.006 26.8952 107.735 28.2405C109.497 29.5858 110.378 31.7799 110.378 34.8229V49.4769H105.91L105.573 47.1707C104.644 48.0676 103.491 48.7562 102.114 49.2367C100.769 49.7171 99.0711 49.9574 97.0212 49.9574ZM98.4145 46.2098C99.984 46.2098 101.345 45.9535 102.498 45.441C103.684 44.8965 104.644 44.1758 105.381 43.279V39.2911H98.1743C96.6368 39.2911 95.5157 39.5954 94.811 40.204C94.1384 40.7806 93.8021 41.6774 93.8021 42.8946C93.8021 44.0797 94.2025 44.9286 95.0032 45.441C95.804 45.9535 96.9411 46.2098 98.4145 46.2098Z" fill="white"/>
<path d="M112.608 49.7345V26.9607H117.412L117.652 29.363C118.677 28.5622 119.895 27.8896 121.304 27.345C122.745 26.7685 124.331 26.4802 126.061 26.4802C129.007 26.4802 131.153 27.1689 132.499 28.5462C133.844 29.9235 134.517 32.0696 134.517 34.9844V49.7345H129.328V35.2246C129.328 33.4629 128.959 32.2297 128.223 31.5251C127.518 30.8204 126.173 30.468 124.187 30.468C123.002 30.468 121.833 30.7083 120.679 31.1887C119.558 31.6692 118.613 32.2938 117.845 33.0625V49.7345H112.608Z" fill="white"/>
<path d="M36.7471 18.8946C36.7471 26.4402 30.3674 32.5638 22.4893 32.5638C14.6112 32.5638 8.23152 26.4402 8.23152 18.8946C8.23152 11.3489 14.6112 5.22541 22.4893 5.22541C30.3674 5.22541 36.7471 11.3489 36.7471 18.8946Z" fill="url(#paint0_linear_147_2157)" stroke="white" stroke-width="0.186179"/>
<path d="M0.0930894 19.1679C0.0930894 8.60023 8.32109 0.0930894 18.5289 0.0930894C27.6965 0.0930894 35.1581 7.38227 36.5458 16.492C35.151 11.8316 30.865 7.86895 25.4653 7.86895C18.9496 7.86895 13.6848 13.3199 13.6848 20.0525V37.6476V37.7459C13.6848 45.5291 7.59763 51.8537 0.0930894 51.9056V20.1508V20.1485V20.1462V20.1439V20.1416V20.1393V20.137V20.1348V20.1325V20.1302V20.1279V20.1256V20.1233V20.1211V20.1188V20.1165V20.1143V20.112V20.1097V20.1075V20.1052V20.1029V20.1007V20.0984V20.0962V20.0939V20.0917V20.0894V20.0872V20.0849V20.0827V20.0805V20.0782V20.076V20.0738V20.0715V20.0693V20.0671V20.0649V20.0626V20.0604V20.0582V20.056V20.0538V20.0516V20.0494V20.0472V20.045V20.0428V20.0406V20.0384V20.0362V20.034V20.0318V20.0296V20.0274V20.0252V20.023V20.0208V20.0187V20.0165V20.0143V20.0121V20.01V20.0078V20.0056V20.0035V20.0013V19.9991V19.997V19.9948V19.9927V19.9905V19.9884V19.9862V19.9841V19.9819V19.9798V19.9776V19.9755V19.9733V19.9712V19.9691V19.9669V19.9648V19.9627V19.9606V19.9584V19.9563V19.9542V19.9521V19.9499V19.9478V19.9457V19.9436V19.9415V19.9394V19.9373V19.9352V19.9331V19.931V19.9289V19.9268V19.9247V19.9226V19.9205V19.9184V19.9163V19.9142V19.9121V19.91V19.908V19.9059V19.9038V19.9017V19.8997V19.8976V19.8955V19.8934V19.8914V19.8893V19.8872V19.8852V19.8831V19.8811V19.879V19.8769V19.8749V19.8728V19.8708V19.8687V19.8667V19.8646V19.8626V19.8606V19.8585V19.8565V19.8544V19.8524V19.8504V19.8483V19.8463V19.8443V19.8422V19.8402V19.8382V19.8362V19.8341V19.8321V19.8301V19.8281V19.8261V19.8241V19.8221V19.82V19.818V19.816V19.814V19.812V19.81V19.808V19.806V19.804V19.802V19.8V19.798V19.796V19.7941V19.7921V19.7901V19.7881V19.7861V19.7841V19.7821V19.7802V19.7782V19.7762V19.7742V19.7723V19.7703V19.7683V19.7663V19.7644V19.7624V19.7604V19.7585V19.7565V19.7546V19.7526V19.7506V19.7487V19.7467V19.7448V19.7428V19.7409V19.7389V19.737V19.735V19.7331V19.7311V19.7292V19.7273V19.7253V19.7234V19.7214V19.7195V19.7176V19.7156V19.7137V19.7118V19.7099V19.7079V19.706V19.7041V19.7022V19.7002V19.6983V19.6964V19.6945V19.6926V19.6906V19.6887V19.6868V19.6849V19.683V19.6811V19.6792V19.6773V19.6754V19.6735V19.6715V19.6696V19.6677V19.6658V19.6639V19.6621V19.6602V19.6583V19.6564V19.6545V19.6526V19.6507V19.6488V19.6469V19.645V19.6431V19.6413V19.6394V19.6375V19.6356V19.6337V19.6319V19.63V19.6281V19.6262V19.6244V19.6225V19.6206V19.6187V19.6169V19.615V19.6131V19.6113V19.6094V19.6075V19.6057V19.6038V19.602V19.6001V19.5982V19.5964V19.5945V19.5927V19.5908V19.589V19.5871V19.5853V19.5834V19.5816V19.5797V19.5779V19.576V19.5742V19.5723V19.5705V19.5687V19.5668V19.565V19.5631V19.5613V19.5595V19.5576V19.5558V19.554V19.5521V19.5503V19.5485V19.5466V19.5448V19.543V19.5412V19.5393V19.5375V19.5357V19.5339V19.532V19.5302V19.5284V19.5266V19.5247V19.5229V19.5211V19.5193V19.5175V19.5157V19.5139V19.512V19.5102V19.5084V19.5066V19.5048V19.503V19.5012V19.4994V19.4976V19.4958V19.494V19.4922V19.4904V19.4886V19.4868V19.485V19.4832V19.4814V19.4796V19.4778V19.476V19.4742V19.4724V19.4706V19.4688V19.467V19.4652V19.4634V19.4616V19.4598V19.458V19.4563V19.4545V19.4527V19.4509V19.4491V19.4473V19.4455V19.4438V19.442V19.4402V19.4384V19.4366V19.4349V19.4331V19.4313V19.4295V19.4277V19.426V19.4242V19.4224V19.4206V19.4189V19.4171V19.4153V19.4135V19.4118V19.41V19.4082V19.4065V19.4047V19.4029V19.4012V19.3994V19.3976V19.3959V19.3941V19.3923V19.3906V19.3888V19.387V19.3853V19.3835V19.3818V19.38V19.3782V19.3765V19.3747V19.373V19.3712V19.3694V19.3677V19.3659V19.3642V19.3624V19.3607V19.3589V19.3571V19.3554V19.3536V19.3519V19.3501V19.3484V19.3466V19.3449V19.3431V19.3414V19.3396V19.3379V19.3361V19.3344V19.3326V19.3309V19.3291V19.3274V19.3257V19.3239V19.3222V19.3204V19.3187V19.3169V19.3152V19.3134V19.3117V19.31V19.3082V19.3065V19.3047V19.303V19.3012V19.2995V19.2978V19.296V19.2943V19.2925V19.2908V19.2891V19.2873V19.2856V19.2839V19.2821V19.2804V19.2786V19.2769V19.2752V19.2734V19.2717V19.27V19.2682V19.2665V19.2648V19.263V19.2613V19.2596V19.2578V19.2561V19.2543V19.2526V19.2509V19.2491V19.2474V19.2457V19.244V19.2422V19.2405V19.2388V19.237V19.2353V19.2336V19.2318V19.2301V19.2284V19.2266V19.2249V19.2232V19.2214V19.2197V19.218V19.2163V19.2145V19.2128V19.2111V19.2093V19.2076V19.2059V19.2042V19.2024V19.2007V19.199V19.1972V19.1955V19.1938V19.1921V19.1903V19.1886V19.1869V19.1851V19.1834V19.1817V19.18V19.1782V19.1765V19.1748V19.173V19.1713V19.1696V19.1679Z" fill="url(#paint1_linear_147_2157)" stroke="white" stroke-width="0.186179"/>
<defs>
<linearGradient id="paint0_linear_147_2157" x1="27.5846" y1="33.9776" x2="9.23439" y2="9.17595" gradientUnits="userSpaceOnUse">
<stop stop-color="white"/>
<stop offset="1" stop-color="#8DB8FE"/>
</linearGradient>
<linearGradient id="paint1_linear_147_2157" x1="20.5624" y1="0.202498" x2="-9.4779" y2="50.9912" gradientUnits="userSpaceOnUse">
<stop stop-color="white"/>
<stop offset="1" stop-color="#8DB8FE"/>
</linearGradient>
</defs>
</svg>
