<svg width="14" height="12" viewBox="0 0 14 12" fill="none" xmlns="http://www.w3.org/2000/svg">
<path d="M14 1.42545C13.4852 1.65977 12.9249 1.82841 12.3478 1.89409C12.947 1.51853 13.3956 0.925212 13.6096 0.225451C13.0475 0.578331 12.4315 0.825774 11.7892 0.956814C11.5208 0.654018 11.1961 0.412799 10.8354 0.248186C10.4747 0.0835722 10.0858 -0.00090849 9.69281 7.36758e-06C8.10289 7.36758e-06 6.82421 1.35977 6.82421 3.02841C6.82421 3.26273 6.85111 3.49705 6.89482 3.72249C4.51412 3.59113 2.39082 2.39113 0.979209 0.553853C0.721998 1.01737 0.587212 1.54514 0.588872 2.08225C0.588872 3.13314 1.0953 4.05977 1.86756 4.60474C1.41246 4.58583 0.968009 4.45385 0.570364 4.21953V4.25681C0.570364 5.7284 1.5563 6.94794 2.87033 7.22838C2.62361 7.296 2.3698 7.33062 2.11489 7.33134C1.92813 7.33134 1.75147 7.31184 1.57313 7.2852C1.93655 8.4852 2.99483 9.35682 4.25502 9.3852C3.26908 10.2 2.03413 10.6793 0.693189 10.6793C0.45259 10.6793 0.230501 10.6704 0 10.642C1.27196 11.503 2.78115 12 4.40644 12C9.6827 12 12.5699 7.38816 12.5699 3.38521C12.5699 3.25385 12.5699 3.12249 12.5615 2.99113C13.1201 2.55977 13.6096 2.02545 14 1.42545Z" fill="#7D7D7D" fill-opacity="0.5"/>
</svg>
